ply
format ascii 1.0
comment Generated from SMF model by smf2ply
element vertex 502
property float x
property float y
property float z
element face 1000
property list uchar int vertex_indices
end_header
-0.0621314 0.17357 -0.0608333
-0.0654908 0.178345 -0.0599742
-0.0647523 0.163974 -0.0587656
-0.0686139 0.166927 -0.0532897
-0.0727827 0.178254 -0.0546989
-0.0623556 0.172829 -0.0543553
-0.0657194 0.158257 -0.0548132
-0.0690125 0.157761 -0.0518804
-0.0663574 0.179701 -0.055825
-0.0617669 0.166017 -0.057946
-0.070153 0.180969 -0.056009
-0.0626605 0.165294 -0.0406305
-0.0734929 0.164115 -0.03932
-0.077648 0.174352 -0.0474763
-0.0703076 0.150952 -0.0433873
-0.0666931 0.152588 -0.0450355
-0.0722004 0.173238 -0.0374074
-0.0745295 0.179296 -0.0497747
-0.0724741 0.151337 -0.0401686
-0.0661298 0.168953 -0.0349573
-0.0627374 0.158686 -0.0403122
-0.0786601 0.166932 -0.0350713
-0.0252629 0.0782173 -0.0374604
-0.0159898 0.0748713 -0.0386011
-0.0248742 0.0863675 -0.0364618
-0.01755 0.0846703 -0.0388758
-0.00391702 0.0843062 -0.0371093
-0.0134479 0.0915944 -0.0361864
-0.0666284 0.146079 -0.021559
-0.0234049 0.0676678 -0.0355926
-0.0155714 0.0658203 -0.0374572
0.00836009 0.0731128 -0.0331191
0.00606484 0.0893313 -0.0326778
-0.0727707 0.14663 -0.0208491
-0.0126526 0.0563854 -0.0343762
0.00146511 0.0631562 -0.0338017
-0.00316332 0.0691587 -0.0351003
0.0085388 0.0640532 -0.0312869
-0.0312045 0.0781871 -0.0317971
-0.0230297 0.092672 -0.0331577
-0.00189056 0.0955553 -0.0316771
-0.0186164 0.0452198 -0.0279854
0.00339158 0.0518564 -0.0302275
0.0130134 0.0784723 -0.0307785
-0.0780185 0.173987 -0.0430108
-0.0395981 0.0349468 -0.028975
-0.0333515 0.0415649 -0.029565
-0.0172478 0.0387821 -0.0275666
-0.00857248 0.0429881 -0.0264005
0.0133142 0.0900625 -0.029626
-0.0167574 0.0990448 -0.0247728
-0.00552485 0.100198 -0.0243993
-0.0630013 0.147597 -0.0157067
-0.0616914 0.157584 -0.0242635
-0.0779503 0.161285 -0.0246304
-0.06898 0.165208 -0.0189806
-0.0441294 0.034068 -0.0264948
-0.0323262 0.0345203 -0.029791
-0.0401189 0.0450426 -0.0220268
0.0189435 0.0575673 -0.0275109
-0.029514 0.0636772 -0.0260886
0.0246913 0.0816754 -0.0246012
-0.0762981 0.154425 -0.0150751
-0.013748 0.183529 -0.0273119
-0.014727 0.184837 -0.0236277
-0.0199422 0.0340872 -0.0207765
-0.00816487 0.0343948 -0.0237846
-0.0248438 0.0476402 -0.0270947
-0.0296566 0.0505032 -0.0214277
0.0188331 0.049966 -0.0244065
0.0259819 0.0534129 -0.0213764
0.0294063 0.0627733 -0.020198
-0.0331687 0.0844244 -0.0261159
0.0192328 0.0993614 -0.0222001
0.0136172 0.0965337 -0.0239521
-0.0761004 0.150377 -0.0109481
-0.00908992 0.173147 -0.0253846
0.0153911 0.0414152 -0.0224573
0.00816584 0.046309 -0.0261595
0.0219371 0.0698088 -0.027064
-0.0286231 0.0941424 -0.0250254
0.0271092 0.0923758 -0.0209584
-0.0111261 0.177111 -0.0290332
-0.018896 0.185275 -0.0219217
0.0128057 0.0347982 -0.0190654
-0.0552522 0.0924466 -0.0218411
-0.0421544 0.0879524 -0.0218606
-0.0434006 0.0972646 -0.0217723
-0.0300755 0.104146 -0.0222138
0.00847705 0.103063 -0.0210411
-0.0209776 0.109882 -0.0204559
-0.00839395 0.115599 -0.01655
-0.00269381 0.111601 -0.0206677
-0.0128258 0.170024 -0.0175706
-0.0277137 0.0367392 -0.0185036
0.0179312 0.0384646 -0.0183635
-0.0424451 0.0464431 -0.0128013
0.0240124 0.0464007 -0.0174153
0.0316059 0.075614 -0.0192386
-0.054917 0.0809874 -0.0212329
-0.0558465 0.103604 -0.0192901
-0.0429024 0.107766 -0.019481
-0.0281409 0.111808 -0.017524
-0.0105676 0.167371 -0.0219713
-0.0174823 0.183857 -0.0186952
-0.0197494 0.186315 -0.0179739
-0.0389838 0.0340912 -0.0160859
0.00353825 0.0345925 -0.0164215
0.0121318 0.0345597 -0.01033
0.0314028 0.0549791 -0.0140822
-0.0345014 0.0659799 -0.0158077
-0.0641202 0.0752747 -0.0168054
0.0360449 0.083288 -0.016774
-0.063214 0.0832176 -0.0191824
-0.0634075 0.0960324 -0.0180388
0.026937 0.106267 -0.0145873
0.0131324 0.112229 -0.017619
-0.0746044 0.162438 -0.0145562
-0.0507337 0.033604 -0.0105556
0.0175296 0.0351568 -0.0118423
-0.0332974 0.0381464 -0.0140739
-0.0101938 0.0386561 -0.0146608
0.0384132 0.0573293 -0.00619512
-0.037238 0.0772981 -0.0196132
-0.0536219 0.0661185 -0.0108572
-0.0739901 0.0845161 -0.0148575
0.0352861 0.0936492 -0.0139814
-0.0644342 0.104267 -0.0164299
-0.0368036 0.116631 -0.01447
0.0106933 0.118703 -0.0145362
-0.0240598 0.161832 -0.0146678
-0.0304728 0.165913 -0.00593768
-0.0245715 0.18122 -0.00991081
-0.0419486 0.0594534 -0.0122489
-0.0459528 0.0774401 -0.0186692
0.0405178 0.0808895 -0.00959491
-0.0764191 0.095225 -0.0127352
-0.0488168 0.118049 -0.014291
-0.0143279 0.120853 -0.0107211
-0.0315314 0.165505 -0.0157322
-0.0662723 0.154639 0.000902857
-0.0227732 0.176312 -0.0210702
-0.0316696 0.168809 -0.00576129
-0.0491241 0.0351068 -0.0136124
0.00309907 0.0389174 -0.0101238
-0.0321547 0.0525169 -0.0104392
0.027165 0.0443509 -0.00698014
-0.0455089 0.0673336 -0.0152071
-0.0663467 0.063845 -0.00258455
-0.0738077 0.0727394 -0.00763697
-0.0840165 0.090125 -0.00454272
0.0414173 0.0923344 -0.00734961
0.035399 0.103357 -0.00964938
-0.0586543 0.111957 -0.0157727
-0.00137694 0.123706 -0.0102026
0.0157959 0.122858 -0.00757481
-0.0656286 0.141053 -0.00829735
-0.0624624 0.148683 -0.00686479
-0.0133005 0.162958 -0.0145562
-0.0432036 0.159389 -0.00973774
-0.0422549 0.0339759 -0.00350566
-0.0484393 0.049606 -0.00920391
-0.0632526 0.119361 -0.00936799
0.0233152 0.117379 -0.00880426
-0.030282 0.122435 -0.00624502
-0.0371473 0.124947 -0.00604309
-0.0427788 0.151949 -0.00636891
-0.0659185 0.0398176 -0.00583014
-0.0561783 0.0454182 -0.00622213
0.0344309 0.051972 -0.00710807
0.0394479 0.0692752 -0.0105446
-0.0799806 0.0789122 -0.00544576
-0.0835936 0.0988954 -0.00392848
0.0323587 0.112607 -0.00496067
-0.0761356 0.125683 -0.00752047
-0.0510941 0.12816 -0.00452659
-0.0639272 0.156557 -0.0121829
-0.0538358 0.152677 -0.00289208
-0.0175436 0.161688 -0.00768247
-0.032466 0.174473 -0.00314622
-0.0277158 0.181133 -0.00927791
-0.0675955 0.0350479 -0.00566888
-0.0323196 0.0380008 -0.00012349
0.0472502 0.049186 -0.00365242
-0.055525 0.0527198 -0.00238724
0.0457512 0.0568059 -0.00550584
-0.0738661 0.114383 -0.00661755
0.00668612 0.126863 -0.00583505
-0.0551762 0.139471 -0.00257191
-0.0798109 0.131506 -0.00528525
-0.0593965 0.147298 -0.00218429
-0.0745457 0.143489 -0.00680757
-0.0425981 0.169372 -0.00825998
-0.0715067 0.0350844 0.00056501
0.0222577 0.0352545 -0.000381143
-0.0590793 0.04784 0.00208153
0.0515462 0.0577814 -0.00378929
0.0425476 0.0625731 -0.00286198
0.0467903 0.0728298 0.00589557
0.0444164 0.0842196 -0.000654906
-0.0821054 0.11103 0.000125483
-0.086387 0.120854 -0.00171544
-0.0115542 0.12586 -0.00509248
0.00331225 0.130379 0.00171003
-0.0774549 0.152732 -0.00308329
-0.0293655 0.154598 -0.00599784
-0.0513704 0.164181 0.000897827
0.0143279 0.0345337 0.00174779
-0.000613382 0.0384966 0.0221008
0.0524505 0.0657203 -0.000253532
-0.0845089 0.0792737 0.00491227
-0.0878882 0.0978622 0.00571212
0.0409202 0.104039 0.00294258
-0.0820548 0.139656 -0.00115288
-0.0413684 0.149551 -0.00399253
-0.0292424 0.155058 -0.002181
-0.0599051 0.155222 0.00258745
-0.0505451 0.0339229 0.00760906
-0.00392687 0.0385747 0.00647727
-0.06838 0.0432546 0.00201103
0.0499471 0.0455894 0.00377482
0.0552506 0.0527498 0.00292073
0.0581333 0.0595444 0.0033794
0.0448287 0.0941443 0.00713895
-0.0856463 0.109628 0.00642113
0.0326717 0.116396 0.00388195
-0.0892368 0.132443 0.00447154
-0.028944 0.125509 0.00540534
-0.0897371 0.147953 0.0121199
-0.0260955 0.159294 -0.00125029
-0.0395259 0.165966 0.00277659
-0.0401178 0.172838 -0.00319056
-0.0579823 0.0575496 0.00964525
-0.0574744 0.0594038 -0.00165451
-0.0753438 0.0688088 0.00172432
-0.0881633 0.0879691 0.00693028
0.0207997 0.125074 0.00110407
-0.0433976 0.129516 0.0082602
-0.0477351 0.134018 0.00747385
-0.043536 0.148151 0.00440006
-0.0736669 0.155463 0.00354469
-0.0378063 0.156759 0.00445341
-0.0399905 0.15965 0.00279946
0.00433691 0.0345952 0.00286562
0.0249189 0.0344777 0.00940008
-0.0552668 0.053606 0.00911943
-0.0691131 0.0618624 0.00797884
0.0568896 0.071115 0.00885354
-0.0924281 0.123094 0.00910839
-0.0107214 0.128992 0.00321199
-0.00176358 0.13105 0.00840961
0.0120056 0.129339 0.00254626
-0.0493798 0.143247 0.00347783
-0.0718525 0.037713 0.00752509
-0.0506247 0.0333085 0.0187518
-0.031846 0.0339235 0.0123062
0.034767 0.0361405 0.011596
0.0385705 0.0402983 0.000608601
0.0486649 0.0432669 0.00931373
-0.0653542 0.0448127 0.00802972
0.0579714 0.0658606 0.00370793
-0.0800019 0.0718383 0.00734083
0.04938 0.0733392 0.0108875
-0.0920646 0.116223 0.0106646
0.0186059 0.127523 0.00931181
-0.0872356 0.141308 0.00884046
-0.0387248 0.0359993 0.0128388
-0.0533537 0.0452047 0.0170797
0.056989 0.0509425 0.0129355
0.0604833 0.0593372 0.0115226
-0.0121442 0.129632 0.0136756
0.0083787 0.131312 0.0121205
-0.0506524 0.146166 0.0133172
0.0155219 0.0380826 0.0130136
0.0593133 0.0694062 0.0133979
-0.08559 0.0796109 0.0157325
0.0386387 0.108781 0.0143971
-0.0870021 0.108907 0.0173704
0.0337499 0.114894 0.0207326
0.0270461 0.12206 0.0177985
-0.0888163 0.151273 0.0143042
-0.0517805 0.152996 0.0127179
-0.0806065 0.154825 0.0176726
-0.0445141 0.165602 0.00417625
0.00136974 0.0347104 0.0163258
0.00847811 0.0345962 0.0185891
-0.0591403 0.0404036 0.020192
-0.0893057 0.0982301 0.0165755
0.0431042 0.0959044 0.0223366
-0.0915136 0.113963 0.0169749
-0.0276954 0.125373 0.0169356
-0.0395728 0.0343622 0.031169
0.0224176 0.0350368 0.0214471
-0.0501468 0.0526046 0.016012
-0.0706609 0.06314 0.0185974
0.0465906 0.0723858 0.0197928
0.0538072 0.0733076 0.0167262
-0.0427334 0.127556 0.0184679
0.000909796 0.130894 0.0196242
0.0143451 0.129075 0.0183027
-0.0908007 0.136639 0.0174458
0.0355476 0.0385259 0.0218694
0.0545504 0.0488807 0.0194372
-0.094303 0.123259 0.0200521
-0.0927616 0.129982 0.0146321
-0.0523174 0.138588 0.0260727
-0.0565472 0.156475 0.0105853
-0.0333959 0.0343823 0.0227155
0.0110958 0.0350122 0.0276236
-0.0261863 0.0376425 0.0191113
0.0476543 0.0448785 0.0229851
-0.053527 0.0571826 0.0213379
0.0585445 0.057834 0.0212374
-0.0765179 0.0710587 0.0252206
0.0581384 0.0683191 0.020045
-0.0541044 0.151084 0.0255002
-0.0909374 0.147957 0.0234085
-0.0521052 0.0509495 0.0291002
-0.0642169 0.0668541 0.0323227
-0.0840538 0.0807226 0.0230119
-0.0889339 0.0903971 0.0198883
-0.0898807 0.115508 0.0283951
-0.0272891 0.119791 0.0287539
0.00765 0.129099 0.0252414
-0.0309127 0.037907 0.0318139
-0.0523023 0.0520219 0.0256359
0.0537936 0.0549873 0.0268804
0.0527053 0.0689796 0.0247181
0.0433299 0.0856845 0.0265924
-0.0925087 0.123014 0.0300887
-0.0382109 0.122825 0.0266121
0.0179658 0.124906 0.0271583
-0.0902358 0.131063 0.0399364
-0.0456304 0.1219 0.0272022
-0.00700046 0.128957 0.0254382
-0.086815 0.151764 0.0242923
-0.0664594 0.0364799 0.0311985
-0.0647665 0.0390521 0.0274493
0.0300859 0.0400129 0.0283292
-0.0620547 0.0447203 0.0306163
-0.081643 0.1085 0.0294211
-0.0890327 0.137067 0.0267098
-0.0575717 0.15323 0.0296329
0.0562375 0.0630308 0.0257051
-0.0800193 0.0782458 0.0301786
-0.0861389 0.0999637 0.0258077
0.0295556 0.11564 0.0289321
-0.0896365 0.141539 0.0313385
-0.0854968 0.148267 0.0330919
0.0437124 0.0484712 0.0307997
0.0437638 0.0677215 0.0268266
-0.0823473 0.0841196 0.0309185
-0.0678702 0.155524 0.0258919
-0.0626121 0.0341159 0.01882
-0.0120974 0.0392324 0.0382466
0.0336781 0.048593 0.0316031
-0.0520085 0.0623161 0.0319958
0.0399082 0.0601316 0.0307908
0.0501818 0.0615065 0.029799
0.0371227 0.0943882 0.0350589
-0.0809098 0.0967455 0.0334247
-0.0771382 0.108446 0.0367504
-0.0145759 0.124043 0.0304003
-0.0501328 0.128931 0.0312929
-0.00332472 0.124283 0.0334176
-0.0597755 0.149446 0.0351509
-0.0765046 0.15242 0.0338199
0.0104104 0.0352297 0.0347479
0.0455057 0.056228 0.0318762
0.0397683 0.075161 0.0332209
-0.071116 0.0737753 0.0356885
0.0380429 0.105724 0.025967
0.0271873 0.10964 0.0365184
-0.051643 0.116561 0.0335683
-0.0403243 0.113626 0.0346963
-0.0925112 0.117549 0.0364339
0.00864779 0.122448 0.0347183
-0.0626063 0.137573 0.0368796
-0.0627151 0.0350242 0.0407257
-0.0647797 0.042211 0.0352578
0.0214089 0.038366 0.0390408
0.0280865 0.0481524 0.0374899
-0.0775481 0.0865483 0.0372523
-0.0339767 0.109106 0.0376385
-0.0566133 0.134012 0.034606
-0.0792757 0.147967 0.0393288
0.0339146 0.0735296 0.0397955
0.0337035 0.0888448 0.0411227
-0.0726285 0.0949359 0.0407334
-0.0734214 0.104582 0.0369362
-0.0885588 0.113531 0.041994
0.0191723 0.118705 0.0343548
-0.00130659 0.1179 0.0392292
-0.0664174 0.151852 0.035841
-0.0359212 0.0349883 0.0442018
-0.0637988 0.0371103 0.0419441
-0.0249792 0.0388319 0.0380668
-0.00508966 0.034997 0.0416721
0.000985672 0.0393443 0.0345857
-0.0287069 0.05497 0.0368581
-0.0414016 0.0498 0.0394765
0.0339781 0.0627759 0.0390094
-0.0300782 0.0789722 0.0418255
-0.0266572 0.0659427 0.0399216
-0.0568599 0.0698094 0.038425
0.0302144 0.102174 0.0381686
-0.0654374 0.110713 0.0373234
-0.0512188 0.110202 0.0375628
-0.0604887 0.118837 0.0407566
-0.0858271 0.140702 0.0415791
0.0149846 0.0350819 0.0399331
-0.0601061 0.0456648 0.0403613
-0.0505849 0.051032 0.0346233
-0.0214542 0.0512332 0.0451815
-0.0421476 0.0656156 0.0410672
-0.0353979 0.067172 0.0410124
-0.0197543 0.0612533 0.0487475
-0.047548 0.0752814 0.0422913
-0.0666956 0.0842832 0.0432496
-0.0608732 0.100065 0.042436
-0.0127053 0.118812 0.037048
-0.0924808 0.121503 0.0416506
-0.0643096 0.145634 0.039011
-0.0393411 0.0348637 0.0420129
-0.0385575 0.0442419 0.0412311
-0.0554646 0.0437255 0.0445106
-0.055875 0.0789659 0.043772
-0.0330651 0.0842195 0.0423267
-0.0309463 0.0981315 0.0440687
-0.0455508 0.103667 0.0413806
0.012065 0.110743 0.0397602
-0.0808186 0.111355 0.0445597
0.00185303 0.110874 0.0422346
-0.0198025 0.0350219 0.0446182
-0.0328567 0.0404428 0.0503508
0.0176385 0.047486 0.0430156
0.0216826 0.0549232 0.0456333
-0.0243096 0.0812383 0.0538501
-0.0413415 0.0810414 0.042861
0.0264384 0.0828423 0.0467607
-0.0622337 0.0898225 0.0451483
0.0253817 0.0939604 0.045671
-0.0544434 0.0889685 0.0451074
-0.0481301 0.0896704 0.0447166
-0.0378277 0.0911133 0.0436554
-0.0405994 0.0984847 0.0416846
-0.0188964 0.0983733 0.0451058
-0.0183546 0.108109 0.0417754
0.0120663 0.103085 0.0461716
-0.000306151 0.102113 0.0444121
-0.0723231 0.112063 0.0473374
-0.0610819 0.124677 0.0427261
-0.0499277 0.037341 0.0459156
-0.00293371 0.0349791 0.0454676
-0.0589462 0.0375367 0.0460668
0.014541 0.0367906 0.0437968
0.00773759 0.0441335 0.0458834
0.0224296 0.0670703 0.0468098
-0.0832044 0.117311 0.0483694
-0.0889034 0.120671 0.0462799
-0.0851134 0.132154 0.0482756
-0.0690039 0.130559 0.0491248
-0.0285479 0.0358172 0.051859
-0.00172029 0.0436703 0.0467569
-0.0132744 0.0480546 0.0481132
0.0103501 0.0539227 0.0516855
0.0181319 0.0576518 0.0485185
0.0188909 0.0821231 0.0514826
0.00663017 0.0984688 0.0490703
-0.0699047 0.142814 0.044453
-0.0788185 0.139619 0.0475875
-0.0163951 0.0363794 0.0513152
-0.0276615 0.047707 0.0480903
-0.00228143 0.0516476 0.0528229
-0.0159163 0.0588899 0.0517266
0.0103995 0.0644223 0.0539659
0.0198278 0.099142 0.0461312
0.0130313 0.0914087 0.0521952
-0.0179329 0.0934736 0.0534676
-0.00826051 0.098384 0.0507266
-0.0675703 0.11548 0.0490174
-0.080064 0.127137 0.0525185
-0.0690145 0.123039 0.0524955
-0.0269773 0.0407916 0.0535303
0.0124338 0.0758148 0.0546549
-0.0226196 0.086037 0.0547697
-0.0280276 0.0910406 0.0450589
0.00281216 0.0945294 0.054193
-0.0708952 0.118035 0.0526143
-0.0763551 0.132062 0.0521407
-0.0215103 0.0437767 0.0530089
-0.00751862 0.0619607 0.0557765
-0.0119745 0.0678844 0.0546362
-0.0183596 0.0812319 0.0569871
-0.0102182 0.093722 0.0553587
0.00270021 0.0608793 0.0556939
0.0106667 0.0834142 0.0543871
-0.0032508 0.0715605 0.0576362
0.00347352 0.0770066 0.0567029
-0.00666695 0.0776703 0.058253
-0.0111073 0.0876388 0.056961
0.00294849 0.0858525 0.0569438
3 9 2 0
3 2 1 0
3 9 0 5
3 1 2 3
3 3 4 1
3 0 1 5
3 5 1 8
3 8 1 10
3 9 6 2
3 7 2 6
3 10 1 4
3 3 2 7
3 4 3 12
3 13 17 4
3 10 4 17
3 8 10 17
3 15 14 6
3 7 6 14
3 15 6 9
3 20 15 9
3 9 11 20
3 9 5 11
3 13 4 12
3 13 44 17
3 8 17 16
3 18 7 14
3 11 5 19
3 8 19 5
3 19 8 16
3 12 3 7
3 12 21 13
3 13 21 44
3 30 29 22
3 23 30 22
3 24 25 23
3 22 24 23
3 25 26 23
3 26 25 27
3 28 14 15
3 17 44 16
3 30 34 29
3 30 23 36
3 23 31 36
3 23 26 31
3 32 31 26
3 38 24 22
3 24 27 25
3 14 33 18
3 29 34 41
3 34 30 35
3 30 36 35
3 36 31 37
3 29 38 22
3 24 38 72
3 72 39 24
3 27 32 26
3 39 27 24
3 42 41 34
3 34 35 42
3 36 37 35
3 29 60 38
3 31 32 43
3 32 27 40
3 27 39 51
3 40 27 51
3 14 28 33
3 45 46 57
3 47 57 46
3 41 42 48
3 29 41 67
3 35 37 42
3 59 42 37
3 67 60 29
3 43 79 31
3 32 49 43
3 39 72 80
3 74 32 40
3 49 32 74
3 50 51 39
3 52 15 20
3 20 11 53
3 12 54 21
3 19 16 55
3 57 56 45
3 45 56 46
3 56 58 46
3 46 41 47
3 46 58 67
3 46 67 41
3 42 78 48
3 37 31 59
3 31 79 59
3 43 49 61
3 80 50 39
3 52 20 53
3 62 12 7
3 21 117 44
3 16 44 117
3 64 76 82
3 63 64 82
3 57 65 56
3 57 47 66
3 47 41 48
3 67 58 68
3 78 42 59
3 78 59 69
3 69 59 70
3 71 70 59
3 59 79 71
3 43 61 79
3 61 49 73
3 49 74 73
3 51 74 40
3 75 18 33
3 18 75 7
3 54 12 62
3 11 176 53
3 11 19 176
3 54 117 21
3 141 63 82
3 57 66 65
3 66 47 77
3 47 48 77
3 48 78 77
3 78 69 77
3 60 67 68
3 73 81 61
3 80 88 50
3 75 62 7
3 157 52 53
3 76 103 82
3 141 83 63
3 64 63 83
3 56 65 106
3 84 66 77
3 98 71 79
3 110 38 60
3 61 98 79
3 110 123 72
3 38 110 72
3 61 81 98
3 86 72 123
3 85 87 86
3 80 72 86
3 86 87 80
3 85 101 87
3 87 88 80
3 51 89 74
3 89 73 74
3 88 90 50
3 50 92 51
3 92 89 51
3 28 15 52
3 64 93 76
3 106 65 94
3 95 84 77
3 58 56 143
3 143 96 58
3 97 95 77
3 69 97 77
3 70 97 69
3 145 60 68
3 111 113 99
3 99 86 134
3 85 86 99
3 113 114 85
3 113 85 99
3 85 114 100
3 100 101 85
3 73 115 81
3 73 89 115
3 87 101 88
3 50 90 91
3 90 88 102
3 92 50 91
3 139 141 82
3 104 93 64
3 83 105 104
3 104 64 83
3 66 107 65
3 66 108 107
3 71 109 70
3 110 60 145
3 147 134 123
3 134 86 123
3 112 98 81
3 125 114 113
3 114 127 100
3 100 153 101
3 88 101 102
3 89 116 115
3 89 92 116
3 91 90 138
3 116 92 129
3 157 53 176
3 176 19 55
3 117 55 16
3 130 139 82
3 82 103 130
3 158 103 93
3 103 76 93
3 66 84 108
3 84 95 119
3 106 94 120
3 121 94 65
3 121 65 107
3 94 121 120
3 97 119 95
3 68 58 96
3 70 109 97
3 170 71 98
3 124 111 99
3 124 99 134
3 135 98 112
3 125 113 111
3 81 126 112
3 127 153 100
3 101 153 137
3 101 137 128
3 102 101 128
3 92 91 154
3 129 92 154
3 104 131 93
3 132 104 105
3 143 56 118
3 56 106 118
3 145 68 96
3 109 71 122
3 147 123 133
3 147 124 134
3 125 111 149
3 135 112 126
3 136 114 125
3 136 127 114
3 152 126 81
3 152 81 115
3 138 102 128
3 138 90 102
3 130 103 158
3 140 55 117
3 83 141 192
3 105 83 192
3 84 119 108
3 120 121 218
3 121 107 144
3 107 108 144
3 109 146 97
3 109 122 169
3 133 123 110
3 170 122 71
3 124 148 111
3 150 136 125
3 126 151 135
3 127 136 186
3 163 116 129
3 115 116 163
3 162 137 153
3 137 162 175
3 138 154 91
3 129 154 187
3 155 129 187
3 28 191 33
3 156 28 52
3 62 204 54
3 204 117 54
3 139 130 166
3 159 192 141
3 141 139 159
3 131 104 142
3 132 142 104
3 180 132 105
3 160 106 120
3 96 143 161
3 161 145 96
3 161 133 145
3 161 147 133
3 133 110 145
3 124 147 161
3 148 149 111
3 98 135 170
3 125 149 171
3 150 125 171
3 153 127 186
3 152 115 163
3 153 186 162
3 164 138 128
3 163 129 155
3 175 128 137
3 156 191 28
3 75 33 191
3 159 139 166
3 166 130 214
3 130 205 214
3 158 205 130
3 178 158 93
3 93 131 178
3 118 106 160
3 160 120 182
3 146 119 97
3 218 121 144
3 143 167 168
3 161 143 168
3 146 109 169
3 161 184 124
3 136 150 172
3 152 151 126
3 173 152 163
3 186 174 162
3 164 128 165
3 165 128 175
3 202 154 138
3 174 156 162
3 189 156 174
3 157 156 52
3 205 158 178
3 177 192 159
3 142 132 179
3 181 143 118
3 181 167 143
3 218 144 108
3 161 168 184
3 169 185 183
3 169 122 185
3 135 151 199
3 200 186 136
3 174 186 201
3 162 188 175
3 156 190 162
3 162 190 188
3 189 191 156
3 204 62 75
3 159 166 177
3 176 55 140
3 178 131 229
3 105 192 231
3 231 180 105
3 180 179 132
3 194 119 146
3 181 193 167
3 195 168 167
3 169 183 146
3 185 196 183
3 197 185 122
3 233 124 184
3 233 148 124
3 170 197 122
3 198 197 170
3 148 234 149
3 135 199 170
3 172 200 136
3 173 163 236
3 155 236 163
3 201 189 174
3 202 138 164
3 203 154 202
3 155 187 251
3 213 191 189
3 190 156 157
3 204 75 191
3 215 178 229
3 205 178 215
3 192 206 231
3 179 180 231
3 118 160 217
3 243 108 207
3 108 119 207
3 207 119 194
3 182 120 208
3 257 194 146
3 183 257 146
3 195 184 168
3 196 221 183
3 196 185 260
3 197 209 185
3 185 209 260
3 149 234 171
3 171 210 150
3 211 172 150
3 212 151 152
3 225 173 236
3 227 202 164
3 201 226 189
3 249 203 202
3 203 187 154
3 226 213 189
3 213 204 191
3 166 190 177
3 190 166 214
3 157 176 140
3 190 157 140
3 204 240 117
3 240 140 117
3 192 177 216
3 131 242 229
3 216 206 192
3 353 193 181
3 181 118 353
3 218 108 243
3 120 218 208
3 219 167 193
3 195 167 219
3 196 222 221
3 196 260 222
3 209 197 198
3 171 234 210
3 198 170 199
3 199 151 223
3 223 151 212
3 172 224 200
3 152 173 212
3 225 212 173
3 201 186 200
3 227 164 165
3 251 236 155
3 251 187 203
3 188 238 175
3 190 252 188
3 190 214 252
3 213 228 204
3 214 205 239
3 214 239 252
3 190 140 216
3 190 216 177
3 215 239 205
3 242 131 230
3 131 142 230
3 142 179 230
3 353 118 217
3 257 183 220
3 183 221 220
3 232 233 184
3 233 246 148
3 210 235 150
3 211 224 172
3 237 165 175
3 238 237 175
3 240 204 228
3 241 215 229
3 242 241 229
3 283 231 206
3 283 230 231
3 231 230 179
3 217 160 255
3 207 194 244
3 245 184 195
3 148 246 234
3 260 209 247
3 209 198 247
3 210 234 261
3 235 211 150
3 224 201 200
3 237 227 165
3 227 249 202
3 264 236 251
3 250 203 249
3 238 188 252
3 226 265 213
3 265 228 213
3 241 239 215
3 253 193 353
3 353 217 254
3 160 182 255
3 182 208 309
3 256 194 257
3 193 253 219
3 257 220 258
3 259 219 253
3 259 195 219
3 246 233 232
3 246 261 234
3 247 198 262
3 276 212 225
3 263 201 224
3 263 248 201
3 264 225 236
3 201 248 226
3 251 203 250
3 206 216 306
3 306 283 206
3 217 255 266
3 194 256 244
3 257 258 256
3 268 220 221
3 245 232 184
3 222 269 221
3 269 222 260
3 198 199 223
3 224 211 277
3 270 249 227
3 271 264 251
3 271 251 250
3 238 252 272
3 280 240 228
3 240 216 140
3 242 283 241
3 283 242 230
3 243 207 273
3 207 244 273
3 258 220 268
3 267 195 259
3 267 245 195
3 268 221 269
3 269 260 274
3 274 260 247
3 235 210 275
3 223 212 276
3 225 264 279
3 227 290 270
3 270 250 249
3 252 239 272
3 281 239 241
3 283 281 241
3 306 281 283
3 218 243 284
3 243 273 285
3 286 259 253
3 275 210 261
3 287 211 235
3 288 223 276
3 277 211 287
3 289 263 224
3 276 225 278
3 225 279 278
3 304 226 248
3 290 227 237
3 265 226 304
3 239 281 272
3 282 240 280
3 243 285 284
3 253 353 286
3 255 182 309
3 273 244 292
3 245 293 232
3 246 294 261
3 269 274 314
3 295 262 198
3 296 247 262
3 287 235 320
3 289 224 277
3 248 263 303
3 299 279 264
3 298 250 270
3 299 264 271
3 297 237 238
3 228 265 300
3 266 255 307
3 217 266 291
3 208 218 284
3 292 244 301
3 244 256 301
3 267 293 245
3 268 302 258
3 293 311 232
3 294 246 232
3 275 261 294
3 274 247 296
3 295 296 262
3 198 223 295
3 303 304 248
3 298 271 250
3 304 300 265
3 297 238 305
3 238 272 305
3 217 291 254
3 307 255 309
3 284 285 308
3 267 259 286
3 256 258 310
3 310 258 302
3 268 269 312
3 311 294 232
3 312 269 314
3 313 275 294
3 274 296 314
3 319 235 275
3 320 235 319
3 289 303 263
3 297 290 237
3 271 298 299
3 316 228 300
3 228 316 280
3 272 281 315
3 352 216 240
3 266 307 291
3 285 273 292
3 256 310 301
3 317 267 286
3 293 267 317
3 312 302 268
3 313 319 275
3 295 223 288
3 345 277 287
3 288 276 371
3 321 289 277
3 299 298 323
3 306 315 281
3 282 352 240
3 352 306 216
3 208 284 308
3 325 293 317
3 302 312 326
3 311 293 325
3 294 311 318
3 327 296 295
3 296 327 314
3 329 303 289
3 329 289 321
3 322 362 290
3 330 290 297
3 299 331 279
3 332 304 303
3 334 270 290
3 334 298 270
3 300 304 332
3 335 280 316
3 335 282 280
3 353 254 291
3 336 337 353
3 309 324 307
3 292 301 338
3 337 286 353
3 337 339 286
3 317 286 339
3 310 302 326
3 312 314 343
3 294 318 313
3 295 328 350
3 320 319 351
3 287 320 345
3 277 345 340
3 371 276 278
3 277 340 321
3 278 279 346
3 331 346 279
3 330 297 333
3 290 330 322
3 362 334 290
3 297 305 333
3 316 300 347
3 338 301 310
3 325 356 311
3 326 312 343
3 343 314 327
3 319 313 344
3 295 288 328
3 345 320 351
3 371 278 346
3 329 332 303
3 323 331 299
3 323 298 334
3 341 347 300
3 316 348 335
3 366 282 335
3 352 282 366
3 306 342 315
3 342 306 352
3 285 292 308
3 349 338 310
3 310 326 349
3 358 343 327
3 350 327 295
3 344 351 319
3 333 305 363
3 300 332 341
3 272 315 305
3 353 291 423
3 324 309 396
3 208 354 309
3 355 338 349
3 412 317 339
3 356 325 317
3 326 358 368
3 358 326 343
3 318 311 356
3 358 327 350
3 350 328 369
3 328 288 359
3 288 371 359
3 345 360 340
3 361 321 340
3 374 330 333
3 364 334 362
3 323 334 364
3 363 305 384
3 305 315 365
3 335 348 366
3 315 342 365
3 308 292 367
3 324 291 307
3 309 354 396
3 367 208 308
3 398 208 367
3 379 339 337
3 326 368 349
3 355 368 357
3 368 350 357
3 358 350 368
3 313 318 370
3 357 350 369
3 344 313 370
3 328 359 369
3 360 345 351
3 346 405 371
3 375 329 321
3 372 346 391
3 333 363 373
3 391 346 331
3 364 376 323
3 323 376 331
3 305 377 384
3 393 342 352
3 378 336 353
3 379 337 336
3 380 292 338
3 354 208 398
3 355 380 338
3 355 349 368
3 355 357 381
3 351 344 370
3 382 360 351
3 371 405 359
3 405 346 372
3 374 383 330
3 407 374 333
3 322 420 362
3 331 376 391
3 362 420 364
3 347 341 332
3 365 377 305
3 348 385 366
3 342 393 365
3 366 393 352
3 353 423 378
3 367 292 410
3 355 381 380
3 379 411 339
3 411 412 339
3 412 414 317
3 414 356 317
3 318 356 404
3 417 404 356
3 370 382 351
3 387 369 359
3 388 389 360
3 389 340 360
3 340 389 361
3 321 361 390
3 375 321 390
3 373 408 406
3 373 406 407
3 407 333 373
3 383 322 330
3 364 420 392
3 291 394 423
3 395 336 378
3 324 396 291
3 410 292 380
3 379 336 395
3 412 400 414
3 381 357 401
3 399 402 415
3 402 399 403
3 357 369 401
3 356 414 417
3 369 386 401
3 370 318 404
3 369 387 386
3 382 388 360
3 406 361 389
3 430 372 391
3 430 391 376
3 364 392 376
3 451 373 363
3 451 408 373
3 409 347 332
3 316 347 409
3 316 409 348
3 377 365 422
3 469 422 365
3 469 365 393
3 367 410 397
3 398 367 397
3 354 398 397
3 424 399 400
3 399 472 413
3 436 435 381
3 415 400 399
3 400 415 414
3 416 399 413
3 436 381 401
3 403 399 416
3 382 370 418
3 419 406 389
3 429 445 374
3 383 374 445
3 407 429 374
3 430 405 372
3 420 322 383
3 447 420 383
3 376 392 432
3 432 430 376
3 421 329 375
3 329 421 332
3 384 451 363
3 451 384 377
3 385 348 409
3 385 393 366
3 410 380 455
3 354 397 433
3 380 381 455
3 381 435 455
3 379 395 411
3 412 411 425
3 400 412 425
3 424 400 425
3 399 424 472
3 426 370 404
3 417 426 404
3 415 438 414
3 427 438 415
3 402 427 415
3 418 388 382
3 441 387 359
3 405 441 359
3 419 389 388
3 428 383 445
3 419 407 406
3 428 447 383
3 361 406 450
3 390 361 431
3 420 447 432
3 432 392 420
3 421 375 390
3 291 396 394
3 433 394 396
3 397 410 453
3 433 396 354
3 455 453 410
3 424 452 423
3 424 423 434
3 454 411 395
3 411 454 425
3 424 425 452
3 457 436 401
3 457 401 386
3 402 403 437
3 414 438 417
3 426 418 370
3 387 439 386
3 426 440 418
3 441 439 387
3 442 440 426
3 438 443 417
3 427 444 438
3 444 445 438
3 486 427 402
3 427 486 444
3 440 419 388
3 419 442 443
3 438 445 443
3 445 429 443
3 444 428 445
3 443 429 419
3 429 407 419
3 405 476 441
3 446 447 428
3 446 449 447
3 476 405 430
3 449 432 447
3 430 432 449
3 450 406 480
3 406 408 480
3 421 390 459
3 460 409 332
3 409 470 385
3 470 393 385
3 393 470 469
3 378 423 452
3 433 397 453
3 395 378 454
3 454 378 452
3 455 456 463
3 456 455 435
3 403 416 437
3 386 439 457
3 417 443 426
3 443 442 426
3 418 440 388
3 442 419 440
3 486 428 444
3 486 446 428
3 446 479 449
3 449 448 430
3 448 476 430
3 361 450 431
3 390 431 458
3 390 458 459
3 408 451 480
3 421 459 332
3 332 459 460
3 451 377 461
3 461 377 422
3 409 460 470
3 422 469 461
3 433 453 394
3 455 471 453
3 471 455 463
3 452 425 454
3 456 464 463
3 465 456 435
3 466 465 435
3 466 435 436
3 466 436 457
3 476 467 441
3 439 441 467
3 479 468 449
3 468 476 448
3 449 468 448
3 394 471 462
3 394 453 471
3 394 462 423
3 471 463 490
3 472 424 434
3 490 463 464
3 473 464 456
3 473 474 464
3 413 464 474
3 416 413 474
3 466 457 475
3 457 439 467
3 402 437 486
3 467 476 496
3 476 477 496
3 478 446 486
3 476 468 477
3 458 431 450
3 482 451 461
3 489 461 469
3 462 434 423
3 483 472 434
3 472 483 490
3 472 490 413
3 490 464 413
3 465 473 456
3 466 475 465
3 416 474 437
3 457 484 475
3 486 437 485
3 479 446 478
3 477 468 487
3 458 450 488
3 450 480 488
3 458 488 481
3 480 482 488
3 482 480 451
3 459 458 481
3 482 461 489
3 481 460 459
3 460 481 470
3 470 481 489
3 489 469 470
3 462 483 434
3 471 490 462
3 490 483 462
3 465 495 473
3 473 491 474
3 475 495 465
3 474 493 437
3 484 457 467
3 485 478 486
3 478 494 479
3 468 479 487
3 479 494 487
3 488 482 481
3 482 489 481
3 473 495 491
3 491 492 474
3 497 495 475
3 492 493 474
3 475 498 497
3 484 498 475
3 484 467 496
3 496 498 484
3 477 501 496
3 485 500 478
3 478 500 494
3 487 494 501
3 501 477 487
3 495 497 491
3 491 497 492
3 497 493 492
3 493 497 499
3 501 499 498
3 499 500 493
3 498 496 501
3 493 485 437
3 501 500 499
3 493 500 485
3 500 501 494
3 499 497 498