ply
format ascii 1.0
comment Created by MatGeom for MATLAB
element vertex 502
property double x
property double y
property double z
element face 1000
property list int int vertex_index
end_header
-3.48539883366533898 7.00777557509960225 7.89424713147410273
-3.82133883366533844 6.92186557509960210 8.37174713147410188
-3.74748883366533825 6.80100557509960169 6.93464713147410272
-4.13364883366533942 6.25341557509960211 7.22994713147410195
-4.55052883366533933 6.39433557509960249 8.36264713147410177
-3.50781883366533798 6.35997557509960210 7.82014713147410312
-3.84419883366533810 6.40576557509960232 6.36294713147410285
-4.17350883366533854 6.11248557509960211 6.31334713147410387
-3.90799883366533818 6.50694557509960170 8.50734713147410204
-3.44894883366533822 6.71904557509960121 7.13894713147410176
-4.28755883366533741 6.52534557509960145 8.63414713147410140
-3.53830883366533788 4.98749557509960173 7.06664713147410239
-4.62154883366533831 4.85644557509960251 6.94874713147410361
-5.03705883366533769 5.67207557509960125 7.97244713147410344
-4.30301883366533833 5.26317557509960210 5.63244713147410270
-3.94156883366533917 5.42799557509960184 5.79604713147410244
-4.49229883366533844 4.66518557509960186 7.86104713147410283
-4.72520883366533795 5.90191557509960152 8.46684713147410406
-4.51966883366533878 4.94130557509960155 5.67094713147410268
-3.88523883366533873 4.42017557509960124 7.43254713147410140
-3.54599883366533852 4.95566557509960237 6.40584713147410145
-5.13826883366533771 4.43157557509960132 7.23044713147410167
0.20145116633466104 4.67048557509960194 -1.64102286852589740
1.12876116633466128 4.78455557509960094 -1.97562286852589741
0.24032116633466127 4.57062557509960143 -0.82600286852589777
0.97274116633466123 4.81202557509960194 -0.99572286852589731
2.33603916633466113 4.63537557509960152 -1.03213286852589792
1.38295116633466120 4.54308557509960220 -0.30331286852589706
-3.93509883366533897 3.08034557509960161 5.14514713147410063
0.38725116633466122 4.48370557509960133 -2.69597286852589768
1.17060116633466116 4.67016557509960251 -2.88072286852589787
3.56375016633466135 4.23635557509960137 -2.15147286852589703
3.33422516633466115 4.19222557509960225 -0.52962286852589746
-4.54932883366533769 3.00935557509960150 5.20024713147410367
1.46248116633466108 4.36206557509960202 -3.82421286852589759
2.87425216633466096 4.30461557509960180 -3.14713286852589835
2.41140916633466107 4.43447557509960166 -2.54688286852589751
3.58162116633466132 4.05313557509960187 -3.05743286852589735
-0.39270883366533882 4.10415557509960216 -1.64404286852589809
0.42477116633466117 4.24021557509960090 -0.19555286852589726
2.53868516633466124 4.09215557509960171 0.09277713147410188
0.86610116633466094 3.72298557509960215 -4.94077286852589825
3.06689916633466142 3.94719557509960195 -4.27711286852589812
4.02908116633466129 4.00229557509960188 -1.61552286852589821
-5.07410883366533927 5.22552557509960192 7.93594713147410236
-1.23206883366533848 3.82194557509960164 -5.96807286852589769
-0.60740883366533871 3.88094557509960225 -5.30626286852589768
1.00296116633466115 3.68110557509960179 -5.58454286852589732
1.87049316633466112 3.56449557509960213 -5.16394286852589790
4.05916116633466117 3.88704557509960136 -0.45650286852589733
1.05200116633466134 3.40172557509960205 0.44172713147410253
2.17525616633466123 3.36437557509960117 0.55704713147410190
-3.57238883366533821 2.49511557509960191 5.29694713147410301
-3.44139883366533939 3.35079557509960235 6.29564713147410249
-5.06728883366533811 3.38748557509960158 6.66574713147410325
-4.17025883366533812 2.82250557509960176 7.05804713147410201
-1.68519883366533874 3.57392557509960129 -6.05595286852589787
-0.50487883366533881 3.90354557509960198 -6.01072286852589777
-1.28414883366533883 3.12712557509960121 -4.95849286852589710
4.62209116633466088 3.67553557509960172 -3.70602286852589735
-0.22365883366533867 3.53330557509960164 -3.09503286852589721
5.19687116633466140 3.38456557509960199 -1.29521286852589812
-4.90206883366533752 2.43195557509960159 5.97974713147410331
1.35294116633466110 3.65563557509960146 8.89014713147410163
1.25504116633466101 3.28721557509960149 9.02094713147410232
0.73352116633466113 3.00209557509960190 -6.05403286852589773
1.91125416633466116 3.30290557509960170 -6.02327286852589694
0.24336116633466126 3.63391557509960128 -4.69873286852589800
-0.23791883366533900 3.06721557509960174 -4.41243286852589822
4.61105116633466050 3.36509557509960189 -4.46615286852589755
5.32593116633466135 3.06208557509960189 -4.12146286852589760
5.66837116633466120 2.94424557509960172 -3.18542286852589740
-0.58912883366533908 3.53603557509960176 -1.02031286852589798
4.65102116633466078 3.14445557509960150 0.47338713147410255
4.08946116633466072 3.31965557509960174 0.19061713147410231
-4.88229883366533812 2.01925557509960152 5.57494713147410348
1.81874916633466133 3.46290557509960228 7.85194713147410184
4.26685116633466155 3.17017557509960124 -5.32123286852589761
3.54432516633466088 3.54039557509960146 -4.83185286852589702
4.92145116633466184 3.63084557509960204 -2.48187286852589750
-0.13456883366533867 3.42698557509960189 -0.04851286852589759
5.43866116633466135 3.02028557509960160 -0.22517286852589830
1.61513116633466125 3.82776557509960158 8.24834713147410170
0.83814116633466118 3.11661557509960163 9.06474713147410149
4.00831116633466156 2.83098557509960180 -5.98293286852589734
-2.79747883366533889 3.10855557509960168 -0.21809286852589732
-1.48769883366533895 3.11050557509960202 -0.66751286852589775
-1.61231883366533868 3.10167557509960190 0.26370713147410296
-0.27980883366533899 3.14582557509960203 0.95184713147410260
3.57544616633466150 3.02855557509960160 0.84354713147410254
0.62998116633466128 2.97003557509960148 1.52544713147410160
1.88834616633466101 2.57944557509960148 2.09714713147410148
2.45836016633466103 2.99121557509960168 1.69734713147410288
1.44516116633466107 2.68150557509960175 7.53964713147410315
-0.04362883366533891 2.77480557509960146 -5.78883286852589762
4.52086116633466073 2.76079557509960205 -5.61629286852589793
-1.51676883366533888 2.20457557509960145 -4.81844286852589754
5.12898116633466117 2.66597557509960170 -4.82268286852589778
5.88833116633466069 2.84830557509960203 -1.90135286852589758
-2.76395883366533868 3.04773557509960158 -1.36401286852589765
-2.85690883366533876 2.85345557509960202 0.89764713147410247
-1.56249883366533893 2.87254557509960140 1.31384713147410226
-0.08634883366533883 2.67684557509960186 1.71804713147410282
1.67098116633466121 3.12157557509960171 7.27434713147410150
0.97951116633466129 2.79396557509960175 8.92294713147410157
0.75280116633466110 2.72183557509960172 9.16874713147410247
-1.17063883366533883 2.53303557509960164 -6.05363286852589777
3.08156616633466118 2.56659557509960168 -6.00350286852589754
3.94092116633466150 1.95744557509960204 -6.00678286852589771
5.86802116633466131 2.33266557509960171 -3.96484286852589740
-0.72239883366533897 2.50521557509960191 -2.86476286852589812
-3.68427883366533848 2.60498557509960182 -1.93528286852589781
6.33223116633466088 2.60184557509960168 -1.13395286852589772
-3.59365883366533900 2.84268557509960162 -1.14099286852589743
-3.61300883366533920 2.72832557509960161 0.14048713147410269
5.42144116633466133 2.38317557509960176 1.16394713147410234
4.04098116633466109 2.68634557509960148 1.76014713147410173
-4.73269883366533861 2.38006557509960182 6.78104713147410187
-2.34562883366533859 1.98000557509960196 -6.10235286852589720
4.48070116633466053 2.10867557509960157 -5.94707286852589778
-0.60199883366533857 2.33183557509960160 -5.64811286852589767
1.70836116633466117 2.39052557509960151 -5.59714286852589815
6.56906116633466119 1.54395757509960174 -3.72982286852589784
-0.99605883366533887 2.88576557509960185 -1.73294286852589829
-2.63444883366533888 2.01016557509960192 -2.85090286852589792
-4.67126883366533896 2.41019557509960158 -1.01114286852589808
6.25635116633466204 2.32258557509960184 -0.09783286852589751
-3.71567883366533813 2.56743557509960185 0.96394713147410216
-0.95261883366533873 2.37144557509960174 2.20034713147410210
3.79707116633466102 2.37806557509960204 2.40754713147410282
0.32176116633466123 2.39122557509960165 6.72044713147410278
-0.31953883366533897 1.51821357509960175 7.12854713147410290
0.27059116633466118 1.91552657509960200 8.65924713147410152
-1.46711883366533913 2.14933557509960194 -3.51741286852589718
-1.86753883366533913 2.79136557509960159 -1.71874286852589786
6.77952116633466062 1.88393657509960200 -1.37380286852589739
-4.91416883366533863 2.19796557509960166 0.05974713147410271
-2.15393883366533867 2.35354557509960172 2.34214713147410247
1.29495116633466134 1.99655557509960180 2.62254713147410268
-0.42539883366533893 2.49766557509960174 7.08774713147410385
-3.89948883366533927 0.83415987509960177 6.00114713147410228
0.45042116633466112 3.03146557509960202 8.16844713147410140
-0.43921883366533876 1.50057457509960157 7.41814713147410121
-2.18466883366533837 2.28568557509960169 -5.95207286852589768
3.03764816633466106 1.93682557509960152 -5.57101286852589794
-0.48772883366533898 1.96836557509960164 -4.21106286852589751
5.44424116633466060 1.62245957509960159 -5.02766286852589772
-1.82314883366533853 2.44515557509960146 -2.72939286852589813
-3.90692883366533783 1.18290057509960178 -3.07825286852589786
-4.65302883366533848 1.68814257509960175 -2.18881286852589829
-5.67390883366533760 1.37871757509960169 -0.45025286852589802
6.86947116633466059 1.65940657509960166 -0.22931286852589799
6.26764116633466184 1.88938357509960198 0.87294713147410274
-3.13768883366533924 2.50171557509960163 1.73294713147410251
2.59004716633466137 1.94470557509960162 2.90784713147410212
4.30733116633466206 1.68192657509960197 2.82304713147410169
-3.83511883366533812 1.75418057509960157 4.64254713147410314
-3.51849883366533867 1.61092457509960174 5.40554713147410304
1.39769116633466117 2.38006557509960182 6.83304713147410148
-1.59261883366533907 1.89821957509960160 6.47614713147410281
-1.49774883366533862 1.27501157509960183 -6.06516286852589737
-2.11618883366533872 1.84483657509960164 -4.50215286852589802
-3.59751883366533898 1.86124457509960162 2.47334713147410179
5.05926116633466094 1.80487157509960161 2.27514713147410186
-0.30045883366533882 1.54894757509960179 2.78074713147410257
-0.98698883366533896 1.52875457509960189 3.03194713147410244
-1.55013883366533878 1.56133657509960178 5.73214713147410215
-3.86410883366533886 1.50745957509960182 -5.48099286852589795
-2.89008883366533897 1.54665857509960158 -4.92093286852589795
6.17083116633466133 1.63525257509960187 -4.26555286852589788
6.67253116633466092 1.97890557509960141 -2.53523286852589802
-5.27031883366533815 1.46902157509960185 -1.57153286852589757
-5.63161883366533900 1.31729357509960177 0.42678713147410174
5.96361116633466093 1.42051257509960172 1.79794713147410223
-4.88581883366533809 1.67649257509960159 3.10554713147410144
-2.38166883366533932 1.37710457509960182 3.35324713147410192
-3.66497883366533905 2.14273557509960177 6.19294713147410292
-2.65583883366533913 1.21365357509960181 5.80494713147410302
0.97338116633466121 1.69269257509960180 6.70604713147410259
-0.51885883366533903 1.23906757509960164 7.98454713147410100
-0.04383883366533871 1.85223657509960171 8.65054713147410048
-4.03180883366533838 1.49133357509960196 -5.95796286852589763
-0.50421883366533848 0.93679457509960185 -5.66267286852589713
7.45276116633466046 1.28968757509960175 -4.54415286852589784
-2.82475883366533864 1.16316957509960184 -4.19077286852589825
7.30286116633466076 1.47502957509960164 -3.78216286852589789
-4.65886883366533855 1.58620057509960177 1.97554713147410221
3.39635316633466111 1.50795057509960162 3.22354713147410266
-2.78987883366533884 1.18163657509960185 4.48434713147410324
-5.25334883366533845 1.45297057509960181 3.68784713147410326
-3.21190883366533875 1.14287457509960166 5.26704713147410342
-4.72682883366533879 1.60520257509960174 4.88614713147410296
-1.53206883366533875 1.75044357509960169 7.47444713147410145
-4.42292883366533918 0.86794457509960177 -5.95431286852589725
4.95351116633466049 0.96255987509960184 -5.93730286852589728
-3.18018883366533878 0.71629257509960176 -4.67875286852589767
7.88236116633466111 1.30337457509960175 -3.68461286852589787
6.98250116633466078 1.21064357509960185 -3.20544286852589710
7.40677116633466071 0.33488857509960174 -2.17977286852589769
7.16938116633466116 0.98993617509960175 -1.04079286852589714
-5.48279883366533838 0.91189727509960183 1.64024713147410273
-5.91095883366533936 1.09598957509960182 2.62264713147410244
1.57232116633466101 1.43369357509960182 3.12324713147410238
3.05896616633466101 0.75344257509960177 3.57514713147410168
-5.01774883366533775 1.23277457509960175 5.81044713147410263
-0.20880883366533876 1.52422957509960177 5.99704713147410384
-2.40929883366533870 0.83466287509960169 6.95534713147410155
4.16053116633466136 0.74966657509960177 -6.00938286852589787
2.66640296633466134 -1.28563442490039836 -5.61309286852589739
7.97279116633466156 0.94979877509960187 -2.89072286852589810
-5.72314883366533866 0.43321857509960177 -1.53538286852589745
-6.06107883366533873 0.35323357509960174 0.32346713147410194
6.81976116633466045 0.63018757509960177 0.94114713147410289
-5.47773883366533809 1.03973357509960174 4.50284713147410276
-1.40909883366533872 1.32369857509960176 5.49234713147410147
-0.19649883366533899 1.14254557509960186 6.04304713147410233
-3.26276883366533887 0.66570057509960179 6.05944713147410230
-2.32676883366533893 0.16353957509960176 -6.07046286852589745
2.33505416633466112 0.27671857509960174 -5.60528286852589730
-4.11025883366533851 0.72334257509960165 -5.13729286852589784
7.72245116633466111 0.54696357509960181 -4.90381286852589771
8.25280116633466143 0.63237257509960176 -4.18777286852589814
8.54107116633466212 0.58650557509960177 -3.50831286852589797
7.21061116633466170 0.21055057509960176 -0.04832286852589768
-5.83688883366533773 0.28233257509960180 1.50004713147410262
5.99491116633466170 0.53625057509960172 2.17684713147410225
-6.19593883366533937 0.47729157509960168 3.78154713147410293
-0.16665883366533893 0.38391157509960178 3.08814713147410336
-6.24596883366533895 -0.28754442490039822 5.33254713147410264
0.11819116633466110 1.04947457509960174 6.46664713147410097
-1.22484883366533914 0.64678657509960180 7.13384713147410210
-1.28403883366533900 1.24350157509960169 7.82104713147410102
-3.07048883366533909 -0.04007942490039818 -3.70779286852589784
-3.01969883366533898 1.08989657509960169 -3.52237286852589770
-4.80663883366533895 0.75201357509960176 -2.58187286852589715
-6.08858883366533821 0.23141757509960179 -0.66584286852589825
4.80771116633466100 0.81403857509960176 3.04464713147410126
-1.61201883366533893 0.09842557509960170 3.48884713147410164
-2.04576883366533924 0.17706057509960177 3.93904713147410224
-1.62585883366533857 0.48443957509960178 5.35234713147410268
-4.63894883366533772 0.56997657509960176 6.08354713147410120
-1.05288883366533903 0.47910457509960180 6.21314713147410291
-1.27130883366533864 0.64449957509960176 6.50224713147410061
3.16143216633466162 0.63788357509960170 -6.00323286852589799
5.21963116633466129 -0.01556242490039824 -6.01498286852589814
-2.79893883366533869 0.01250257509960179 -4.10215286852589767
-4.18356883366533783 0.12656157509960184 -3.27651286852589774
8.41670116633466137 0.03909157509960175 -2.35125286852589799
-6.51506883366533884 0.01360657509960183 2.84664713147410176
1.65560116633466103 0.60324657509960178 3.43644713147410208
2.55138316633466111 0.08348457509960178 3.64224713147410206
3.92830116633466142 0.66981957509960177 3.47114713147410336
-2.21023883366533891 0.57666257509960184 4.86194713147410340
-4.45750883366533834 0.17193657509960175 -5.69145286852589738
-2.33472883366533912 -0.95073442490039817 -6.13190286852589761
-0.45685883366533875 -0.30617442490039826 -6.07040286852589706
6.20444116633466081 -0.23515442490039828 -5.84870286852589771
6.58479116633466077 0.86358547509960171 -5.43292286852589790
7.59423116633466133 -0.00692742490039817 -5.13606286852589822
-3.80767883366533866 0.12147357509960169 -4.98148286852589806
8.52488116633466042 0.55365257509960175 -2.87669286852589723
-5.27244883366533834 0.19036257509960181 -2.27892286852589843
7.66574116633466041 -0.16430442490039820 -2.12883286852589837
-6.47871883366533829 -0.14201442490039823 2.15954713147410304
4.58833116633466087 -0.00673542490039827 3.28954713147410205
-5.99581883366533841 0.04039957509960179 4.66804713147410144
-1.14473883366533857 -0.35943442490039818 -5.86282286852589785
-2.60762883366533860 -0.78352442490039820 -4.94228286852589793
8.42664116633466165 -0.36910442490039835 -4.36850286852589775
8.77607116633465978 -0.22781442490039816 -3.52903286852589781
1.51332116633466107 -0.44311442490039821 3.50044713147410214
3.56561116633466124 -0.28760442490039817 3.66844713147410362
-2.33749883366533906 -0.40727442490039822 5.15384713147410167
4.27993116633466109 -0.37691442490039828 -5.65449286852589772
8.65907116633466067 -0.41534442490039836 -2.52213286852589746
-5.83125883366533859 -0.64880442490039825 -1.50166286852589792
6.59161116633466104 -0.51526442490039814 1.41534713147410263
-5.97246883366533865 -0.81259442490039835 1.42794713147410279
6.10273116633466106 -1.14881442490039820 2.02664713147410191
5.43235116633466131 -0.85540442490039803 2.74324713147410248
-6.15388883366533879 -0.50597442490039823 5.66454713147410160
-2.45030883366533869 -0.34734442490039830 5.83684713147410150
-5.33290883366533830 -0.84281442490039826 6.01974713147410156
-1.72366883366533896 0.50682057509960177 7.09744713147410256
2.86471516633466150 -0.70813442490039835 -5.99171286852589713
3.57555216633466122 -0.93446442490039838 -6.00313286852589734
-3.18628883366533922 -1.09475442490039843 -5.42239286852589775
-6.20282883366533877 -0.73310442490039829 0.36025713147410238
7.03816116633466127 -1.30921442490039830 0.12768713147410238
-6.42361883366533881 -0.77304442490039837 1.93354713147410173
-0.04179883366533868 -0.76911442490039805 3.07454713147410352
-1.22953883366533856 -2.19245442490039810 -6.02653286852589787
4.96950116633466088 -1.22026442490039821 -5.95907286852589735
-2.28693883366533868 -0.67675442490039805 -4.20229286852589734
-4.33834883366533841 -0.93529442490039827 -3.14875286852589742
7.38680116633466088 -1.05483442490039825 -2.22417286852589768
8.10846116633466174 -0.74817442490039832 -2.13199286852589776
-1.54559883366533857 -0.92234442490039814 3.29284713147410280
2.81872076633466140 -1.03797442490039837 3.62664713147410334
4.16225116633466108 -0.90582442490039838 3.44474713147410183
-6.35232883366533851 -0.82013442490039834 4.20114713147410335
6.28250116633466149 -1.26249442490039820 -5.61016286852589730
8.18278116633466190 -1.01927442490039843 -4.57468286852589756
-6.70255883366533833 -1.08076442490039826 2.86314713147410149
-6.54841883366533839 -0.53876442490039833 3.53544713147410095
-2.50399883366533871 -1.68282442490039830 4.39604713147410120
-2.92697883366533862 -0.13408442490039832 6.18474713147410249
-0.61184883366533871 -1.34710442490039828 -6.02452286852589758
3.83732116633466092 -1.83791442490039847 -5.96153286852589748
0.10911116633466125 -0.98668442490039832 -5.69850286852589782
7.49317116633466096 -1.37406442490039837 -4.97490286852589758
-2.62495883366533844 -1.20934442490039817 -3.74449286852589758
8.58219116633466150 -1.19929442490039828 -3.67935286852589716
-4.92404883366533852 -1.59761442490039807 -2.35688286852589757
8.54158116633466058 -1.08005442490039827 -2.63084286852589821
-2.68269883366533834 -1.62557442490039827 5.64564713147410213
-6.36599883366533881 -1.41640442490039820 5.33294713147410260
-2.48277883366533869 -1.98557442490039815 -4.36780286852589761
-3.69394883366533788 -2.30782442490039852 -2.77734286852589785
-5.67763883366533850 -1.37674442490039817 -1.39049286852589704
-6.16564883366533856 -1.06438442490039842 -0.42304286852589829
-6.26032883366533799 -1.91506442490039830 2.08804713147410226
-0.00116883366533885 -1.95094442490039821 2.51634713147410194
3.49274116633466125 -1.59969442490039837 3.44714713147410157
-0.36352883366533895 -2.25694442490039826 -5.67205286852589730
-2.50248883366533903 -1.63914442490039813 -4.26056286852589761
8.10710116633466171 -1.76359442490039808 -3.96402286852589736
7.99827116633466151 -1.54736442490039816 -2.56479286852589761
7.06073116633466036 -1.73479442490039815 -0.89430286852589802
-6.52312883366533836 -2.08442442490039825 2.83864713147410219
-1.09334883366533875 -1.73676442490039817 2.81974713147410272
4.52432116633466119 -1.79138442490039829 3.02784713147410267
-6.29583883366533925 -3.06919442490039796 3.64354713147410347
-1.83529883366533908 -1.79577442490039818 2.72724713147410158
2.02769516633466118 -1.61937442490039829 3.43294713147410135
-5.95375883366533909 -1.50478442490039810 5.71364713147410352
-3.91819883366533883 -2.19540442490039833 -5.81476286852589741
-3.74890883366533911 -1.82048442490039819 -5.55754286852589807
5.73633116633466145 -1.90847442490039820 -5.46146286852589835
-3.47772883366533891 -2.13718442490039795 -4.99072286852589819
-5.43655883366533743 -2.01766442490039832 1.38724713147410217
-6.17552883366533933 -1.74653442490039823 4.24394713147410130
-3.02942883366533922 -2.03884442490039808 5.86024713147410292
8.35149116633466093 -1.64606442490039839 -3.15967286852589790
-5.27418883366533819 -2.09341442490039809 -1.63817286852589739
-5.88614883366533892 -1.65632442490039811 0.53361713147410250
5.68330116633466176 -1.96876442490039816 2.10124713147410302
-6.23590883366533788 -2.20940442490039812 4.69114713147410178
-5.82193883366533793 -2.38474442490039840 5.36394713147410318
7.09898116633466181 -2.15552442490039819 -4.61563286852589805
7.10412116633466084 -1.75821442490039814 -2.69060286852589714
-5.50698883366533831 -2.16740442490039831 -1.05079286852589737
-4.05927883366533937 -1.66474442490039820 6.08964713147410208
-3.53346883366533904 -0.95755442490039822 -6.05116286852589802
1.51800116633466131 -2.90021442490039805 -5.53951286852589764
6.09555116633466199 -2.23586442490039827 -4.60345286852589819
-2.47310883366533885 -2.27513442490039797 -3.23114286852589760
6.71856116633466094 -2.15463442490039814 -3.44959286852589786
7.74592116633466166 -2.05545442490039809 -3.31210286852589775
6.44001116633466086 -2.58144442490039783 -0.02393286852589716
-5.36323883366533849 -2.41802442490039837 0.21179713147410212
-4.98607883366533855 -2.75059442490039840 1.38184713147410232
1.27015116633466119 -2.11558442490039855 2.94154713147410218
-2.28553883366533883 -2.20484442490039800 3.43034713147410120
2.39526916633466103 -2.41731442490039816 2.96554713147410265
-3.24980883366533924 -2.59064442490039815 5.48184713147410196
-4.92271883366533913 -2.45754442490039837 5.77924713147410252
3.76878116633466131 -2.55034442490039792 -5.93978286852589754
7.27831116633466113 -2.26317442490039822 -3.83995286852589768
6.70457116633466121 -2.39764442490039809 -1.94665286852589725
-4.38385883366533857 -2.64440442490039818 -2.08522286852589733
6.53203116633466063 -1.67225442490039833 1.10964713147410210
5.44647116633466144 -2.72739442490039830 1.50124713147410249
-2.43655883366533876 -2.43238442490039830 2.19334713147410199
-1.30468883366533883 -2.54518442490039831 1.89984713147410278
-6.52337883366533866 -2.71894442490039800 2.29214713147410221
3.59252016633466109 -2.54738442490039851 2.78204713147410221
-3.53288883366533879 -2.76351442490039823 4.29454713147410239
-3.54376883366533812 -3.14812442490039768 -5.96033286852589761
-3.75022883366533799 -2.60133442490039801 -5.24165286852589762
4.86863116633466131 -2.97963442490039832 -5.62615286852589769
5.53639116633466166 -2.82454442490039836 -4.64751286852589818
-5.02706883366533752 -2.80078442490039858 -0.80792286852589823
-0.66992883366533873 -2.83940442490039802 1.44784713147410171
-2.93358883366533885 -2.53615442490039822 3.93844713147410141
-5.19982883366533866 -3.00843442490039781 5.33394713147410116
6.11920116633466193 -3.05510442490039802 -2.10979286852589754
6.09809116633466086 -3.18782442490039841 -0.57827286852589754
-4.53510883366533868 -3.14889442490039873 0.03083713147410266
-4.61439883366533810 -2.76917442490039845 0.99544713147410180
-6.12813883366533751 -3.27495442490039768 1.89034713147410294
4.64497116633466156 -2.51103442490039797 2.40774713147410280
2.59708216633466105 -2.99847442490039828 2.32724713147410256
-3.91399883366533885 -2.65965442490039816 5.72244713147410078
-0.86437883366533885 -3.49573442490039854 -5.96392286852589759
-3.65213883366533887 -3.26996442490039829 -5.75172286852589743
0.22982116633466115 -2.88223442490039794 -5.57956286852589756
2.21877516633466110 -3.24276442490039774 -5.96305286852589767
2.82630836633466132 -2.53412442490039780 -5.52832286852589760
-0.14294883366533889 -2.76136442490039791 -3.96575286852589803
-1.41241883366533849 -3.02320442490039820 -4.48275286852589794
6.12555116633466135 -2.97649442490039817 -3.18516286852589836
-0.28007883366533876 -3.25810442490039875 -1.56553286852589713
0.06202116633466127 -3.06771442490039847 -2.86848286852589718
-2.95824883366533875 -2.91805442490039812 -2.48181286852589844
5.74918116633466081 -2.89241442490039802 0.75464713147410234
-3.81599883366533899 -2.80789442490039809 1.60854713147410289
-2.39413883366533886 -2.83183442490039816 1.55744713147410163
-3.32112883366533929 -3.15121442490039749 2.42094713147410223
-5.85496883366533893 -3.23346442490039809 4.60744713147410145
4.22620116633466125 -3.06886442490039801 -5.95456286852589756
-3.28286883366533955 -3.11168442490039832 -4.89627286852589805
-2.33074883366533925 -2.53788442490039845 -4.35955286852589730
0.58232116633466124 -3.59370442490039865 -4.33943286852589782
-1.48701883366533893 -3.18227442490039847 -2.90119286852589831
-0.81204883366533909 -3.17679442490039765 -2.74555286852589830
0.75231116633466133 -3.95030442490039846 -3.33742286852589798
-2.02705883366533879 -3.30468442490039749 -1.93461286852589787
-3.94181883366533770 -3.40051442490039868 -1.03443286852589744
-3.35957883366533849 -3.31915442490039858 0.54374713147410247
1.45721116633466119 -2.78035442490039797 2.41844713147410229
-6.52033883366533829 -3.24061442490039830 2.68754713147410218
-3.70321883366533777 -2.97665442490039789 5.10064713147410398
-1.20636883366533842 -3.27684442490039762 -5.97638286852589751
-1.12800883366533888 -3.19866442490039793 -5.03856286852589719
-2.81871883366533904 -3.52661442490039834 -5.09020286852589798
-2.85975883366533878 -3.45275442490039763 -1.56616286852589726
-0.57876883366533882 -3.30822442490039803 -1.04080286852589743
-0.36688883366533875 -3.48242442490039883 0.35039713147410195
-1.82733883366533911 -3.21361442490039773 0.90394713147410188
3.93424116633466081 -3.05157442490039843 1.61154713147410167
-5.35411883366533914 -3.53152442490039808 1.67274713147410181
2.91304416633466090 -3.29901442490039809 1.62464713147410222
0.74749116633466106 -3.53737442490039822 -5.96056286852589778
-0.55792883366533907 -4.11063442490039854 -5.41847286852589782
4.49159116633466127 -3.37711442490039859 -4.71415286852589777
4.89600116633466076 -3.63888442490039887 -3.97043286852589805
0.29678116633466112 -4.46056442490039817 -1.33892286852589781
-1.40640883366533909 -3.36165442490039812 -1.35861286852589780
5.37158116633466154 -3.75162442490039894 -1.17852286852589838
-3.49562883366533894 -3.59038442490039866 -0.48050286852589774
5.26591116633466072 -3.64265442490039870 -0.06671286852589775
-2.71659883366533927 -3.58629442490039763 -0.56590286852589711
-2.08526883366533911 -3.54721442490039829 -0.49571286852589797
-1.05502883366533862 -3.44109442490039807 -0.35142286852589827
-1.33219883366533898 -3.24401442490039882 0.38571713147410175
0.83810116633466114 -3.58613442490039880 0.37457713147410199
0.89228116633466126 -3.25309442490039746 1.34814713147410203
3.93437116633466122 -3.69271442490039803 0.84574713147410185
2.69712606633466123 -3.51676442490039820 0.74854713147410190
-4.50456883366533845 -3.80929442490039882 1.74354713147410179
-3.38044883366533933 -3.34816442490039901 3.00494713147410186
-2.26502883366533858 -3.66711442490039863 -5.72865286852589772
2.43437016633466108 -3.62231442490039823 -5.96484286852589740
-3.16687883366533907 -3.68223442490039776 -5.70908286852589786
4.18184116633466108 -3.45523442490039834 -5.78369286852589770
3.50150016633466121 -3.66389442490039752 -5.04940286852589804
4.97070116633466075 -3.75653442490039868 -2.75572286852589787
-5.59269883366533804 -3.91249442490039812 2.26834713147410216
-6.16259883366533767 -3.70354442490039837 2.60434713147410246
-5.78359883366533900 -3.90311442490039884 3.75264713147410145
-4.17264883366533912 -3.98803442490039828 3.59314713147410325
-0.12704883366533892 -4.26145442490039894 -5.88103286852589768
2.55571216633466136 -3.75124442490039778 -5.09572286852589773
1.40030116633466117 -3.88687442490039814 -4.65729286852589741
3.76275116633466089 -4.24410442490039852 -4.07048286852589758
4.54093116633466032 -3.92740442490039765 -3.69757286852589750
4.61683116633466106 -4.22381442490039927 -1.25044286852589726
3.39075816633466109 -3.98258442490039855 0.38412713147410182
-4.26272883366533861 -3.52085442490039791 4.81864713147410217
-5.15410883366533845 -3.83430442490039791 4.49914713147410161
1.08823116633466133 -4.20707442490039796 -5.82481286852589797
-0.03840883366533869 -3.88458442490039868 -4.69205286852589776
2.49959816633466092 -4.35784442490039758 -4.29799286852589724
1.13611116633466103 -4.24821442490039836 -3.57376286852589731
3.76769116633466128 -4.47214442490039854 -3.02052286852589758
4.71052116633466067 -3.68867442490039821 0.45144713147410170
4.03087116633466103 -4.29507442490039804 -0.32188286852589815
0.93445116633466097 -4.42231442490039761 -0.11539286852589731
1.90169016633466104 -4.14821442490039871 0.37564713147410222
-4.02928883366533874 -3.97729442490039897 2.08524713147410212
-5.27865883366533772 -4.32740442490039801 3.25094713147410230
-4.17370883366533896 -4.32510442490039893 2.84114713147410169
0.03001116633466125 -4.42858442490039916 -5.38359286852589758
3.97112116633466083 -4.54104442490039784 -1.88127286852589748
0.46578116633466116 -4.55252442490039755 -0.85905286852589746
-0.07501883366533880 -3.58144442490039872 -0.35869286852589777
3.00895716633466126 -4.49485442490039766 -0.00981286852589774
-4.36177883366533869 -4.33698442490039859 2.34074713147410218
-4.90776883366533845 -4.28962442490039830 3.74344713147410335
0.57671116633466124 -4.37644442490039864 -5.08508286852589730
1.97587916633466110 -4.65320442490039810 -3.26668286852589773
1.53029116633466100 -4.53917442490039846 -2.67431286852589789
0.89178116633466109 -4.77426442490039804 -1.33956286852589823
1.70592116633466118 -4.61142442490039794 -0.09055286852589772
2.99776216633466142 -4.64494442490039727 -3.37482286852589786
3.79441116633466091 -4.51426442490039825 -1.12133286852589831
2.40266116633466087 -4.83917442490039829 -2.30670286852589790
3.07509316633466145 -4.74584442490039837 -1.76209286852589830
2.06104616633466087 -4.90085442490039824 -1.69572286852589782
1.61701116633466113 -4.77165442490039826 -0.69887286852589736
3.02259016633466127 -4.76993442490039854 -0.87750286852589787
3 9 2 0
3 2 1 0
3 9 0 5
3 1 2 3
3 3 4 1
3 0 1 5
3 5 1 8
3 8 1 10
3 9 6 2
3 7 2 6
3 10 1 4
3 3 2 7
3 4 3 12
3 13 17 4
3 10 4 17
3 8 10 17
3 15 14 6
3 7 6 14
3 15 6 9
3 20 15 9
3 9 11 20
3 9 5 11
3 13 4 12
3 13 44 17
3 8 17 16
3 18 7 14
3 11 5 19
3 8 19 5
3 19 8 16
3 12 3 7
3 12 21 13
3 13 21 44
3 30 29 22
3 23 30 22
3 24 25 23
3 22 24 23
3 25 26 23
3 26 25 27
3 28 14 15
3 17 44 16
3 30 34 29
3 30 23 36
3 23 31 36
3 23 26 31
3 32 31 26
3 38 24 22
3 24 27 25
3 14 33 18
3 29 34 41
3 34 30 35
3 30 36 35
3 36 31 37
3 29 38 22
3 24 38 72
3 72 39 24
3 27 32 26
3 39 27 24
3 42 41 34
3 34 35 42
3 36 37 35
3 29 60 38
3 31 32 43
3 32 27 40
3 27 39 51
3 40 27 51
3 14 28 33
3 45 46 57
3 47 57 46
3 41 42 48
3 29 41 67
3 35 37 42
3 59 42 37
3 67 60 29
3 43 79 31
3 32 49 43
3 39 72 80
3 74 32 40
3 49 32 74
3 50 51 39
3 52 15 20
3 20 11 53
3 12 54 21
3 19 16 55
3 57 56 45
3 45 56 46
3 56 58 46
3 46 41 47
3 46 58 67
3 46 67 41
3 42 78 48
3 37 31 59
3 31 79 59
3 43 49 61
3 80 50 39
3 52 20 53
3 62 12 7
3 21 117 44
3 16 44 117
3 64 76 82
3 63 64 82
3 57 65 56
3 57 47 66
3 47 41 48
3 67 58 68
3 78 42 59
3 78 59 69
3 69 59 70
3 71 70 59
3 59 79 71
3 43 61 79
3 61 49 73
3 49 74 73
3 51 74 40
3 75 18 33
3 18 75 7
3 54 12 62
3 11 176 53
3 11 19 176
3 54 117 21
3 141 63 82
3 57 66 65
3 66 47 77
3 47 48 77
3 48 78 77
3 78 69 77
3 60 67 68
3 73 81 61
3 80 88 50
3 75 62 7
3 157 52 53
3 76 103 82
3 141 83 63
3 64 63 83
3 56 65 106
3 84 66 77
3 98 71 79
3 110 38 60
3 61 98 79
3 110 123 72
3 38 110 72
3 61 81 98
3 86 72 123
3 85 87 86
3 80 72 86
3 86 87 80
3 85 101 87
3 87 88 80
3 51 89 74
3 89 73 74
3 88 90 50
3 50 92 51
3 92 89 51
3 28 15 52
3 64 93 76
3 106 65 94
3 95 84 77
3 58 56 143
3 143 96 58
3 97 95 77
3 69 97 77
3 70 97 69
3 145 60 68
3 111 113 99
3 99 86 134
3 85 86 99
3 113 114 85
3 113 85 99
3 85 114 100
3 100 101 85
3 73 115 81
3 73 89 115
3 87 101 88
3 50 90 91
3 90 88 102
3 92 50 91
3 139 141 82
3 104 93 64
3 83 105 104
3 104 64 83
3 66 107 65
3 66 108 107
3 71 109 70
3 110 60 145
3 147 134 123
3 134 86 123
3 112 98 81
3 125 114 113
3 114 127 100
3 100 153 101
3 88 101 102
3 89 116 115
3 89 92 116
3 91 90 138
3 116 92 129
3 157 53 176
3 176 19 55
3 117 55 16
3 130 139 82
3 82 103 130
3 158 103 93
3 103 76 93
3 66 84 108
3 84 95 119
3 106 94 120
3 121 94 65
3 121 65 107
3 94 121 120
3 97 119 95
3 68 58 96
3 70 109 97
3 170 71 98
3 124 111 99
3 124 99 134
3 135 98 112
3 125 113 111
3 81 126 112
3 127 153 100
3 101 153 137
3 101 137 128
3 102 101 128
3 92 91 154
3 129 92 154
3 104 131 93
3 132 104 105
3 143 56 118
3 56 106 118
3 145 68 96
3 109 71 122
3 147 123 133
3 147 124 134
3 125 111 149
3 135 112 126
3 136 114 125
3 136 127 114
3 152 126 81
3 152 81 115
3 138 102 128
3 138 90 102
3 130 103 158
3 140 55 117
3 83 141 192
3 105 83 192
3 84 119 108
3 120 121 218
3 121 107 144
3 107 108 144
3 109 146 97
3 109 122 169
3 133 123 110
3 170 122 71
3 124 148 111
3 150 136 125
3 126 151 135
3 127 136 186
3 163 116 129
3 115 116 163
3 162 137 153
3 137 162 175
3 138 154 91
3 129 154 187
3 155 129 187
3 28 191 33
3 156 28 52
3 62 204 54
3 204 117 54
3 139 130 166
3 159 192 141
3 141 139 159
3 131 104 142
3 132 142 104
3 180 132 105
3 160 106 120
3 96 143 161
3 161 145 96
3 161 133 145
3 161 147 133
3 133 110 145
3 124 147 161
3 148 149 111
3 98 135 170
3 125 149 171
3 150 125 171
3 153 127 186
3 152 115 163
3 153 186 162
3 164 138 128
3 163 129 155
3 175 128 137
3 156 191 28
3 75 33 191
3 159 139 166
3 166 130 214
3 130 205 214
3 158 205 130
3 178 158 93
3 93 131 178
3 118 106 160
3 160 120 182
3 146 119 97
3 218 121 144
3 143 167 168
3 161 143 168
3 146 109 169
3 161 184 124
3 136 150 172
3 152 151 126
3 173 152 163
3 186 174 162
3 164 128 165
3 165 128 175
3 202 154 138
3 174 156 162
3 189 156 174
3 157 156 52
3 205 158 178
3 177 192 159
3 142 132 179
3 181 143 118
3 181 167 143
3 218 144 108
3 161 168 184
3 169 185 183
3 169 122 185
3 135 151 199
3 200 186 136
3 174 186 201
3 162 188 175
3 156 190 162
3 162 190 188
3 189 191 156
3 204 62 75
3 159 166 177
3 176 55 140
3 178 131 229
3 105 192 231
3 231 180 105
3 180 179 132
3 194 119 146
3 181 193 167
3 195 168 167
3 169 183 146
3 185 196 183
3 197 185 122
3 233 124 184
3 233 148 124
3 170 197 122
3 198 197 170
3 148 234 149
3 135 199 170
3 172 200 136
3 173 163 236
3 155 236 163
3 201 189 174
3 202 138 164
3 203 154 202
3 155 187 251
3 213 191 189
3 190 156 157
3 204 75 191
3 215 178 229
3 205 178 215
3 192 206 231
3 179 180 231
3 118 160 217
3 243 108 207
3 108 119 207
3 207 119 194
3 182 120 208
3 257 194 146
3 183 257 146
3 195 184 168
3 196 221 183
3 196 185 260
3 197 209 185
3 185 209 260
3 149 234 171
3 171 210 150
3 211 172 150
3 212 151 152
3 225 173 236
3 227 202 164
3 201 226 189
3 249 203 202
3 203 187 154
3 226 213 189
3 213 204 191
3 166 190 177
3 190 166 214
3 157 176 140
3 190 157 140
3 204 240 117
3 240 140 117
3 192 177 216
3 131 242 229
3 216 206 192
3 353 193 181
3 181 118 353
3 218 108 243
3 120 218 208
3 219 167 193
3 195 167 219
3 196 222 221
3 196 260 222
3 209 197 198
3 171 234 210
3 198 170 199
3 199 151 223
3 223 151 212
3 172 224 200
3 152 173 212
3 225 212 173
3 201 186 200
3 227 164 165
3 251 236 155
3 251 187 203
3 188 238 175
3 190 252 188
3 190 214 252
3 213 228 204
3 214 205 239
3 214 239 252
3 190 140 216
3 190 216 177
3 215 239 205
3 242 131 230
3 131 142 230
3 142 179 230
3 353 118 217
3 257 183 220
3 183 221 220
3 232 233 184
3 233 246 148
3 210 235 150
3 211 224 172
3 237 165 175
3 238 237 175
3 240 204 228
3 241 215 229
3 242 241 229
3 283 231 206
3 283 230 231
3 231 230 179
3 217 160 255
3 207 194 244
3 245 184 195
3 148 246 234
3 260 209 247
3 209 198 247
3 210 234 261
3 235 211 150
3 224 201 200
3 237 227 165
3 227 249 202
3 264 236 251
3 250 203 249
3 238 188 252
3 226 265 213
3 265 228 213
3 241 239 215
3 253 193 353
3 353 217 254
3 160 182 255
3 182 208 309
3 256 194 257
3 193 253 219
3 257 220 258
3 259 219 253
3 259 195 219
3 246 233 232
3 246 261 234
3 247 198 262
3 276 212 225
3 263 201 224
3 263 248 201
3 264 225 236
3 201 248 226
3 251 203 250
3 206 216 306
3 306 283 206
3 217 255 266
3 194 256 244
3 257 258 256
3 268 220 221
3 245 232 184
3 222 269 221
3 269 222 260
3 198 199 223
3 224 211 277
3 270 249 227
3 271 264 251
3 271 251 250
3 238 252 272
3 280 240 228
3 240 216 140
3 242 283 241
3 283 242 230
3 243 207 273
3 207 244 273
3 258 220 268
3 267 195 259
3 267 245 195
3 268 221 269
3 269 260 274
3 274 260 247
3 235 210 275
3 223 212 276
3 225 264 279
3 227 290 270
3 270 250 249
3 252 239 272
3 281 239 241
3 283 281 241
3 306 281 283
3 218 243 284
3 243 273 285
3 286 259 253
3 275 210 261
3 287 211 235
3 288 223 276
3 277 211 287
3 289 263 224
3 276 225 278
3 225 279 278
3 304 226 248
3 290 227 237
3 265 226 304
3 239 281 272
3 282 240 280
3 243 285 284
3 253 353 286
3 255 182 309
3 273 244 292
3 245 293 232
3 246 294 261
3 269 274 314
3 295 262 198
3 296 247 262
3 287 235 320
3 289 224 277
3 248 263 303
3 299 279 264
3 298 250 270
3 299 264 271
3 297 237 238
3 228 265 300
3 266 255 307
3 217 266 291
3 208 218 284
3 292 244 301
3 244 256 301
3 267 293 245
3 268 302 258
3 293 311 232
3 294 246 232
3 275 261 294
3 274 247 296
3 295 296 262
3 198 223 295
3 303 304 248
3 298 271 250
3 304 300 265
3 297 238 305
3 238 272 305
3 217 291 254
3 307 255 309
3 284 285 308
3 267 259 286
3 256 258 310
3 310 258 302
3 268 269 312
3 311 294 232
3 312 269 314
3 313 275 294
3 274 296 314
3 319 235 275
3 320 235 319
3 289 303 263
3 297 290 237
3 271 298 299
3 316 228 300
3 228 316 280
3 272 281 315
3 352 216 240
3 266 307 291
3 285 273 292
3 256 310 301
3 317 267 286
3 293 267 317
3 312 302 268
3 313 319 275
3 295 223 288
3 345 277 287
3 288 276 371
3 321 289 277
3 299 298 323
3 306 315 281
3 282 352 240
3 352 306 216
3 208 284 308
3 325 293 317
3 302 312 326
3 311 293 325
3 294 311 318
3 327 296 295
3 296 327 314
3 329 303 289
3 329 289 321
3 322 362 290
3 330 290 297
3 299 331 279
3 332 304 303
3 334 270 290
3 334 298 270
3 300 304 332
3 335 280 316
3 335 282 280
3 353 254 291
3 336 337 353
3 309 324 307
3 292 301 338
3 337 286 353
3 337 339 286
3 317 286 339
3 310 302 326
3 312 314 343
3 294 318 313
3 295 328 350
3 320 319 351
3 287 320 345
3 277 345 340
3 371 276 278
3 277 340 321
3 278 279 346
3 331 346 279
3 330 297 333
3 290 330 322
3 362 334 290
3 297 305 333
3 316 300 347
3 338 301 310
3 325 356 311
3 326 312 343
3 343 314 327
3 319 313 344
3 295 288 328
3 345 320 351
3 371 278 346
3 329 332 303
3 323 331 299
3 323 298 334
3 341 347 300
3 316 348 335
3 366 282 335
3 352 282 366
3 306 342 315
3 342 306 352
3 285 292 308
3 349 338 310
3 310 326 349
3 358 343 327
3 350 327 295
3 344 351 319
3 333 305 363
3 300 332 341
3 272 315 305
3 353 291 423
3 324 309 396
3 208 354 309
3 355 338 349
3 412 317 339
3 356 325 317
3 326 358 368
3 358 326 343
3 318 311 356
3 358 327 350
3 350 328 369
3 328 288 359
3 288 371 359
3 345 360 340
3 361 321 340
3 374 330 333
3 364 334 362
3 323 334 364
3 363 305 384
3 305 315 365
3 335 348 366
3 315 342 365
3 308 292 367
3 324 291 307
3 309 354 396
3 367 208 308
3 398 208 367
3 379 339 337
3 326 368 349
3 355 368 357
3 368 350 357
3 358 350 368
3 313 318 370
3 357 350 369
3 344 313 370
3 328 359 369
3 360 345 351
3 346 405 371
3 375 329 321
3 372 346 391
3 333 363 373
3 391 346 331
3 364 376 323
3 323 376 331
3 305 377 384
3 393 342 352
3 378 336 353
3 379 337 336
3 380 292 338
3 354 208 398
3 355 380 338
3 355 349 368
3 355 357 381
3 351 344 370
3 382 360 351
3 371 405 359
3 405 346 372
3 374 383 330
3 407 374 333
3 322 420 362
3 331 376 391
3 362 420 364
3 347 341 332
3 365 377 305
3 348 385 366
3 342 393 365
3 366 393 352
3 353 423 378
3 367 292 410
3 355 381 380
3 379 411 339
3 411 412 339
3 412 414 317
3 414 356 317
3 318 356 404
3 417 404 356
3 370 382 351
3 387 369 359
3 388 389 360
3 389 340 360
3 340 389 361
3 321 361 390
3 375 321 390
3 373 408 406
3 373 406 407
3 407 333 373
3 383 322 330
3 364 420 392
3 291 394 423
3 395 336 378
3 324 396 291
3 410 292 380
3 379 336 395
3 412 400 414
3 381 357 401
3 399 402 415
3 402 399 403
3 357 369 401
3 356 414 417
3 369 386 401
3 370 318 404
3 369 387 386
3 382 388 360
3 406 361 389
3 430 372 391
3 430 391 376
3 364 392 376
3 451 373 363
3 451 408 373
3 409 347 332
3 316 347 409
3 316 409 348
3 377 365 422
3 469 422 365
3 469 365 393
3 367 410 397
3 398 367 397
3 354 398 397
3 424 399 400
3 399 472 413
3 436 435 381
3 415 400 399
3 400 415 414
3 416 399 413
3 436 381 401
3 403 399 416
3 382 370 418
3 419 406 389
3 429 445 374
3 383 374 445
3 407 429 374
3 430 405 372
3 420 322 383
3 447 420 383
3 376 392 432
3 432 430 376
3 421 329 375
3 329 421 332
3 384 451 363
3 451 384 377
3 385 348 409
3 385 393 366
3 410 380 455
3 354 397 433
3 380 381 455
3 381 435 455
3 379 395 411
3 412 411 425
3 400 412 425
3 424 400 425
3 399 424 472
3 426 370 404
3 417 426 404
3 415 438 414
3 427 438 415
3 402 427 415
3 418 388 382
3 441 387 359
3 405 441 359
3 419 389 388
3 428 383 445
3 419 407 406
3 428 447 383
3 361 406 450
3 390 361 431
3 420 447 432
3 432 392 420
3 421 375 390
3 291 396 394
3 433 394 396
3 397 410 453
3 433 396 354
3 455 453 410
3 424 452 423
3 424 423 434
3 454 411 395
3 411 454 425
3 424 425 452
3 457 436 401
3 457 401 386
3 402 403 437
3 414 438 417
3 426 418 370
3 387 439 386
3 426 440 418
3 441 439 387
3 442 440 426
3 438 443 417
3 427 444 438
3 444 445 438
3 486 427 402
3 427 486 444
3 440 419 388
3 419 442 443
3 438 445 443
3 445 429 443
3 444 428 445
3 443 429 419
3 429 407 419
3 405 476 441
3 446 447 428
3 446 449 447
3 476 405 430
3 449 432 447
3 430 432 449
3 450 406 480
3 406 408 480
3 421 390 459
3 460 409 332
3 409 470 385
3 470 393 385
3 393 470 469
3 378 423 452
3 433 397 453
3 395 378 454
3 454 378 452
3 455 456 463
3 456 455 435
3 403 416 437
3 386 439 457
3 417 443 426
3 443 442 426
3 418 440 388
3 442 419 440
3 486 428 444
3 486 446 428
3 446 479 449
3 449 448 430
3 448 476 430
3 361 450 431
3 390 431 458
3 390 458 459
3 408 451 480
3 421 459 332
3 332 459 460
3 451 377 461
3 461 377 422
3 409 460 470
3 422 469 461
3 433 453 394
3 455 471 453
3 471 455 463
3 452 425 454
3 456 464 463
3 465 456 435
3 466 465 435
3 466 435 436
3 466 436 457
3 476 467 441
3 439 441 467
3 479 468 449
3 468 476 448
3 449 468 448
3 394 471 462
3 394 453 471
3 394 462 423
3 471 463 490
3 472 424 434
3 490 463 464
3 473 464 456
3 473 474 464
3 413 464 474
3 416 413 474
3 466 457 475
3 457 439 467
3 402 437 486
3 467 476 496
3 476 477 496
3 478 446 486
3 476 468 477
3 458 431 450
3 482 451 461
3 489 461 469
3 462 434 423
3 483 472 434
3 472 483 490
3 472 490 413
3 490 464 413
3 465 473 456
3 466 475 465
3 416 474 437
3 457 484 475
3 486 437 485
3 479 446 478
3 477 468 487
3 458 450 488
3 450 480 488
3 458 488 481
3 480 482 488
3 482 480 451
3 459 458 481
3 482 461 489
3 481 460 459
3 460 481 470
3 470 481 489
3 489 469 470
3 462 483 434
3 471 490 462
3 490 483 462
3 465 495 473
3 473 491 474
3 475 495 465
3 474 493 437
3 484 457 467
3 485 478 486
3 478 494 479
3 468 479 487
3 479 494 487
3 488 482 481
3 482 489 481
3 473 495 491
3 491 492 474
3 497 495 475
3 492 493 474
3 475 498 497
3 484 498 475
3 484 467 496
3 496 498 484
3 477 501 496
3 485 500 478
3 478 500 494
3 487 494 501
3 501 477 487
3 495 497 491
3 491 497 492
3 497 493 492
3 493 497 499
3 501 499 498
3 499 500 493
3 498 496 501
3 493 485 437
3 501 500 499
3 493 500 485
3 500 501 494
3 499 497 498
