ply
format ascii 1.0
comment created by platoply
element vertex 20
property float32 x
property float32 y
property float32 z
element face 12
property list uint8 int32 vertex_indices
end_header
-0.57735 -0.57735 0.57735 
0.934172 0.356822 0 
0.934172 -0.356822 0 
-0.934172 0.356822 0 
-0.934172 -0.356822 0 
0 0.934172 0.356822 
0 0.934172 -0.356822 
0.356822 0 -0.934172 
-0.356822 0 -0.934172 
0 -0.934172 -0.356822 
0 -0.934172 0.356822 
0.356822 0 0.934172 
-0.356822 0 0.934172 
0.57735 0.57735 -0.57735 
0.57735 0.57735 0.57735 
-0.57735 0.57735 -0.57735 
-0.57735 0.57735 0.57735 
0.57735 -0.57735 -0.57735 
0.57735 -0.57735 0.57735 
-0.57735 -0.57735 -0.57735 
5 1 2 18 11 14 
5 1 13 7 17 2 
5 3 4 19 8 15 
5 3 16 12 0 4 
5 3 15 6 5 16 
5 1 14 5 6 13 
5 2 17 9 10 18 
5 4 0 10 9 19 
5 7 8 19 9 17 
5 6 15 8 7 13 
5 5 14 11 12 16 
5 10 0 12 11 18 
